#!OML:ASF F:\VICON\USERDATA\Patient Classification 1\PLAYGROUND\JustinFriday\JustinFriday.ASF
:FULLY-SPECIFIED
:DEGREES
1605
root 21.8901 17.7696 24.3399 352.656 75.3466 -6.87262
lowerback 12.6057 -0.117681 -4.67206
upperback 3.59954 -0.579193 1.13187
thorax -3.21716 -0.228557 3.90958
lowerneck 9.47866 -18.0558 -14.1054
upperneck 13.3925 -27.0238 18.266
head 7.06681 -13.343 6.2363
rclavicle -2.40529e-014 4.96962e-015
rhumerus -29.9784 1.42892 -84.6154
rradius 56.3115
rwrist -14.3407
rhand -14.0866 -20.5564
rfingers 7.12502
rthumb 12.0456 -50.1897
lclavicle -2.40529e-014 4.96962e-015
lhumerus -31.2804 12.1714 65.5415
lradius 45.7199
lwrist 5.90277
lhand -22.1784 -0.600511
lfingers 7.12502
lthumb 4.23646 29.3371
rfemur -10.9112 17.3644 27.1181
rtibia 47.1179
rfoot 13.3703 -15.4868
rtoes 65.1472
lfemur -18.6504 0.798784 -8.70486
ltibia 23.7535
lfoot -5.00951 -10.8904
ltoes -5.74352
1606
root 21.9578 17.7977 24.322 355.126 74.669 -4.14986
lowerback 12.8296 -0.0327483 -5.09005
upperback 3.71034 -0.538936 0.758134
thorax -3.22504 -0.206894 3.74925
lowerneck 8.98904 -18.1759 -13.5327
upperneck 13.7566 -27.0845 17.7043
head 7.11128 -13.3231 5.93532
rclavicle -4.91992e-014 6.36111e-015
rhumerus -29.7115 0.712189 -84.808
rradius 55.0941
rwrist -14.2545
rhand -14.5483 -20.1701
rfingers 7.12502
rthumb 11.6003 -49.829
lclavicle -4.91992e-014 6.36111e-015
lhumerus -30.8112 11.6745 65.5153
lradius 45.641
lwrist 6.01359
lhand -22.332 0.337313
lfingers 7.12502
lthumb 4.08817 30.2778
rfemur -12.1075 16.3429 25.8877
rtibia 48.9708
rfoot 13.3241 -13.8758
rtoes 64.9123
lfemur -18.0292 1.52684 -9.58451
ltibia 23.8432
lfoot -5.26388 -10.8723
ltoes -6.58401
1607
root 22.024 17.8121 24.3209 355.972 74.1617 -3.62845
lowerback 12.8899 -0.119874 -5.6778
upperback 3.44013 -0.74292 0.9223
thorax -3.50835 -0.296147 4.29093
lowerneck 9.20645 -17.9272 -14.7992
upperneck 14.1395 -27.0709 18.6642
head 7.52413 -13.3365 6.38713
rclavicle -1.32689e-014 9.54166e-015
rhumerus -29.7798 0.663344 -84.7683
rradius 53.9081
rwrist -14.2887
rhand -15.1786 -19.9954
rfingers 7.12502
rthumb 10.9924 -49.6876
lclavicle -1.32689e-014 9.54166e-015
lhumerus -30.618 12.0767 65.5916
lradius 44.8476
lwrist 5.84237
lhand -22.6533 0.894745
lfingers 7.12502
lthumb 3.77791 30.841
rfemur -13.7419 14.969 25.2436
rtibia 50.8358
rfoot 13.8515 -12.0304
rtoes 64.8539
lfemur -18.0112 2.04318 -9.81087
ltibia 23.8301
lfoot -5.36475 -10.8633
ltoes -6.62667
1608
root 22.088 17.8058 24.3022 351.607 72.8681 -8.26258
lowerback 12.9955 -0.178613 -4.33282
upperback 3.41707 -0.638449 1.26588
thorax -3.61932 -0.248196 3.87526
lowerneck 9.1668 -17.6479 -15.967
upperneck 14.6943 -27.1018 20.0598
head 8.10924 -13.3296 6.95059
rclavicle -3.38431e-014 -2.78299e-015
rhumerus -29.6313 0.268615 -84.8872
rradius 52.8129
rwrist -13.6848
rhand -15.3499 -20.4309
rfingers 7.12502
rthumb 10.8273 -50.1318
lclavicle -3.38431e-014 -2.78299e-015
lhumerus -30.0944 12.5259 65.4562
lradius 43.8931
lwrist 5.62256
lhand -22.4105 1.1665
lfingers 7.12502
lthumb 4.01234 31.1085
rfemur -15.0405 14.2255 26.5626
rtibia 52.5279
rfoot 15.017 -10.0494
rtoes 64.8101
lfemur -17.7071 2.38779 -8.12051
ltibia 23.9624
lfoot -5.81321 -10.0887
ltoes -7.78656
1609
root 22.1475 17.8116 24.2921 353.214 72.1831 -6.07244
lowerback 13.7928 -0.173423 -5.04029
upperback 3.45438 -0.766183 1.09449
thorax -3.99186 -0.295061 4.13051
lowerneck 8.78595 -17.6959 -14.8304
upperneck 14.679 -26.7671 18.3444
head 7.6702 -13.1609 6.29115
rclavicle 4.67641e-014 1.98785e-015
rhumerus -29.6139 0.0369107 -84.9515
rradius 51.6267
rwrist -13.1961
rhand -15.3277 -20.6959
rfingers 7.12502
rthumb 10.8487 -50.3957
lclavicle 4.67641e-014 1.98785e-015
lhumerus -29.8782 12.6584 65.3177
lradius 43.3478
lwrist 5.50171
lhand -22.0126 1.78205
lfingers 7.12502
lthumb 4.39658 31.7164
rfemur -15.7894 12.8115 25.6894
rtibia 54.3011
rfoot 15.7108 -7.95403
rtoes 64.6311
lfemur -16.572 2.12946 -8.77822
ltibia 23.5695
lfoot -6.04882 -9.01733
ltoes -9.59647
1610
root 22.2484 17.8274 24.2723 350.485 70.81 -8.86961
lowerback 13.4044 -0.162488 -3.49716
upperback 3.67751 -0.5155 1.13867
thorax -3.59277 -0.192489 3.25059
lowerneck 8.4526 -17.7581 -14.2906
upperneck 14.6373 -26.7108 17.8306
head 7.54675 -13.1133 6.04496
rclavicle 4.95968e-014 -3.97569e-015
rhumerus -29.3706 -0.664269 -85.0235
rradius 50.2069
rwrist -12.9629
rhand -15.7964 -20.3601
rfingers 7.12502
rthumb 10.3966 -50.083
lclavicle 4.95968e-014 -3.97569e-015
lhumerus -29.3572 12.409 65.3215
lradius 43.0471
lwrist 5.57719
lhand -21.9011 2.58276
lfingers 7.12502
lthumb 4.50423 32.5149
rfemur -16.5569 11.8476 26.4489
rtibia 55.7952
rfoot 16.3756 -6.12473
rtoes 64.354
lfemur -15.5774 2.03684 -7.67562
ltibia 23.3704
lfoot -6.50176 -7.70409
ltoes -9.19163
